# xmcd
#
# Track frame offsets:
#	150
#	4371
#	8636
#	12923
#	17219
#	21598
#	26036
#	30794
#	34896
#	39018
#	43037
#	45410
#	47581
#	50541
#	53032
#	55892
#	58530
#	61293
#	63304
#	66339
#
# Disc length: 926 seconds
#
# Revision: 0
# Processed by: cddbd v1.5PL3 Copyright (c) Steve Scherf et al.
# Submitted via: audiograbber 1.83.01
#
DISCID=00039c14
DTITLE=3M Littmann Stethoscope Edition / 20 Beispiele zur Herz- und Lungenausku
DTITLE=ltation
DYEAR=1997
DGENRE=Medizin
TTITLE0=Normale Herztöne
TTITLE1=Dritter Herzton (physiologisch)
TTITLE2=Vierter Herzton
TTITLE3=Aortenklappenstenose
TTITLE4=Mitralklappeninsuffizienz
TTITLE5=Mittelsystolischer Klick
TTITLE6=Ventrikelseptum-Defekt
TTITLE7=Atriumseptum-Defekt
TTITLE8=Mitralklappenstenose
TTITLE9=Aortenklappeninsuffizienz
TTITLE10=normales tracheales Atemgeräusch
TTITLE11=normales vesikuläres Atemgeräusch
TTITLE12=feine Krepitation mit leichter bronchialer Atmung
TTITLE13=rauhe Krepitation
TTITLE14=bronchiale Atmung
TTITLE15=Stridor beim Einatmen
TTITLE16=Rhonchus
TTITLE17=pfeifender Rhonchus (Keuchatmen)
TTITLE18=feine Krepitation (Knisterrasseln)
TTITLE19=pleurales Reibungsgeräusch
EXTD=
EXTT0=
EXTT1=
EXTT2=
EXTT3=
EXTT4=
EXTT5=
EXTT6=
EXTT7=
EXTT8=
EXTT9=
EXTT10=
EXTT11=
EXTT12=
EXTT13=
EXTT14=
EXTT15=
EXTT16=
EXTT17=
EXTT18=
EXTT19=
PLAYORDER=
